<svg xmlns="http://www.w3.org/2000/svg" width="264" height="112" fill="none"><rect width="264" height="112" fill="#F4F4FD" rx="4"/><g clip-path="url(#a)"><path fill="#2E2F42" d="M162.593 54.602c-.003-16.904-13.71-30.605-30.615-30.602-16.905.003-30.606 13.71-30.603 30.616a30.61 30.61 0 0 0 21.299 29.152c.121.038.247.058.373.057.242 0 .478-.065.685-.187.27-.16.472-.414.567-.713l7.73-24.5a3.826 3.826 0 1 0-.04-7.652 3.776 3.776 0 0 0-1.64.382l-10.212-10.213a1.275 1.275 0 0 0-1.803 1.804l10.207 10.218a3.751 3.751 0 0 0 1.072 4.618l-7.365 23.346c-14.556-5.362-22.009-21.508-16.647-36.064 5.362-14.555 21.508-22.008 36.064-16.647 14.555 5.362 22.008 21.509 16.647 36.064a28.087 28.087 0 0 1-14.925 15.947l-.796-3.749a1.274 1.274 0 0 0-2.096-.687l-7.674 6.851a1.275 1.275 0 0 0 .462 2.168l9.797 3.127a1.275 1.275 0 0 0 1.638-1.479l-.782-3.678a30.508 30.508 0 0 0 18.657-28.179Zm-30.609-1.275a1.276 1.276 0 1 1 0 2.553 1.276 1.276 0 0 1 0-2.553Zm4.201 29.728 4.368-3.896 1.206 5.68-5.574-1.784Z"/><path fill="#4D5AE5" d="M130.709 30.37v2.55a1.275 1.275 0 1 0 2.551 0v-2.55a1.276 1.276 0 0 0-2.551 0ZM107.752 53.327a1.275 1.275 0 1 0 0 2.55h2.551a1.275 1.275 0 0 0 0-2.55h-2.551ZM156.216 55.878a1.275 1.275 0 1 0 0-2.55h-2.551a1.275 1.275 0 0 0 0 2.55h2.551Z"/></g><defs><clipPath id="a"><path fill="#fff" d="M100 24h64v64h-64z"/></clipPath></defs></svg>