<svg xmlns="http://www.w3.org/2000/svg" width="264" height="112" fill="none"><rect width="264" height="112" fill="#F4F4FD" rx="4"/><path fill="#2E2F42" d="m161.546 68.195-16.886-17.01 1.874-9.23c.484.188.998.287 1.517.29h.013a4.318 4.318 0 1 0-4.017-2.87l-9.92 1.21-16.182-16.265a1.065 1.065 0 0 0-.753-.32c-.28.002-.548.113-.747.31l-3.025 3.008a1.067 1.067 0 0 0 0 1.509l1.628 1.65a29.885 29.885 0 0 0 5.039 35.327c.085.081.184.147.292.195a6.182 6.182 0 0 0-.104 1.094v12.374h-12.8a5.34 5.34 0 0 0-5.334 5.333v2.133c0 .59.478 1.067 1.067 1.067h49.067c.589 0 1.066-.478 1.066-1.067V84.8a5.34 5.34 0 0 0-5.333-5.333h-12.8v-5.484c2.005.42 4.048.635 6.097.64a29.7 29.7 0 0 0 14.08-3.567l1.636 1.646c.199.202.47.318.754.32.28-.002.548-.113.746-.31l3.025-3.008a1.066 1.066 0 0 0 0-1.509ZM146.56 36.466a2.133 2.133 0 1 1 1.503 3.646h-.006a2.133 2.133 0 0 1-1.493-3.646h-.004Zm-2.511 7.01-1.197 5.89-2.351-2.364 3.548-3.527Zm-1.212-1.804-3.84 3.817-2.971-2.987 6.811-.83Zm5.171 39.928a3.2 3.2 0 0 1 3.2 3.2v1.067h-46.933V84.8a3.2 3.2 0 0 1 3.2-3.2h40.533Zm-14.933-4.267v2.134h-10.667v-2.134h10.667ZM122.408 75.2v-8.107c0-2.587 2.393-4.693 5.333-4.693 2.941 0 5.334 2.106 5.334 4.693V75.2h-10.667Zm12.8-3.392v-4.715c0-3.764-3.349-6.826-7.467-6.826a7.6 7.6 0 0 0-6.562 3.572 27.739 27.739 0 0 1-4.557-31.774l37.204 37.417a27.643 27.643 0 0 1-18.618 2.326Zm22.578-1.368-1.503-1.51-39.102-39.339-1.509-1.512 1.509-1.504 15.87 15.96c.008 0 .012.013.02.019L159.3 68.936l-1.514 1.504Z"/><path fill="#4D5AE5" d="M127.751 64.533h-.01a3.2 3.2 0 1 0-.009 6.4h.009a3.2 3.2 0 1 0 .01-6.4Zm.747 3.957a1.067 1.067 0 1 1-.757-1.823 1.067 1.067 0 0 1 .747 1.823h.01Z"/></svg>