<svg xmlns="http://www.w3.org/2000/svg" width="264" height="112" fill="none"><rect width="264" height="112" fill="#F4F4FD" rx="4"/><path fill="#4D5AE5" d="M163.948 33.048a1.069 1.069 0 0 0-.861-.725l-3.82-.556-1.71-3.462c-.359-.73-1.555-.73-1.913 0l-1.71 3.462-3.821.556a1.07 1.07 0 0 0-.862.725c-.124.386-.021.81.27 1.094l2.766 2.695-.653 3.806c-.068.4.096.804.424 1.043.332.242.765.271 1.124.081l3.418-1.797 3.418 1.797a1.064 1.064 0 0 0 1.124-.08c.328-.24.493-.644.423-1.044l-.652-3.806 2.766-2.696a1.07 1.07 0 0 0 .269-1.093Zm-4.926 2.654c-.25.244-.366.598-.306.944l.382 2.228-2.001-1.051a1.063 1.063 0 0 0-.994 0l-2.001 1.051.381-2.228a1.066 1.066 0 0 0-.306-.944l-1.62-1.579 2.238-.325c.348-.05.647-.269.803-.584l1.001-2.026 1 2.027c.156.314.456.533.803.583l2.238.325-1.618 1.579ZM152.267 65.044h-2.133v2.134h2.133v-2.134ZM152.267 69.311h-2.133v2.134h2.133V69.31ZM154.4 67.178h-2.133v2.133h2.133v-2.133ZM150.134 67.178H148v2.133h2.134v-2.133ZM144.8 76.778h-2.133v2.133h2.133v-2.133ZM144.8 81.045h-2.133v2.133h2.133v-2.133ZM146.934 78.911H144.8v2.134h2.134V78.91ZM142.667 78.911h-2.134v2.134h2.134V78.91ZM132 72.511h-2.133v2.134H132V72.51ZM132 76.778h-2.133v2.133H132v-2.133ZM134.133 74.644H132v2.134h2.133v-2.134ZM129.867 74.644h-2.134v2.134h2.134v-2.134ZM111.733 36.244H109.6v2.133h2.133v-2.133ZM111.733 40.51H109.6v2.134h2.133v-2.133ZM113.866 38.377h-2.133v2.134h2.133v-2.134ZM109.6 38.377h-2.134v2.134h2.134v-2.134Z"/><path fill="#2E2F42" d="M149.43 52.319a3.549 3.549 0 0 0-2.377-1.41 3.554 3.554 0 0 0-2.68.705l-2.503 1.919h-.001l-3.796 2.835-2.715-1.082c4.842-2.172 8.227-7.016 8.227-12.64 0-7.646-6.245-13.867-13.922-13.867-7.677 0-13.923 6.221-13.923 13.867 0 2.771.829 5.349 2.241 7.517l-5.528-.048h-.01c-.017 0-.031.008-.047.01a1.042 1.042 0 0 0-.31.062c-.026.01-.052.015-.077.026-.012.005-.025.006-.038.013l-6.466 3.193h-.002l-3.787 1.822a.777.777 0 0 0-.126.07 3.56 3.56 0 0 0-1.197 4.59 3.551 3.551 0 0 0 2.112 1.779 3.553 3.553 0 0 0 2.757-.257l2.776-1.476 4.528-2.339 2.714-.015-10.884 10.83-.003.003-2.677 2.666a3.297 3.297 0 0 0-.981 2.356 3.333 3.333 0 0 0 3.339 3.328c.856 0 1.709-.324 2.361-.97l2.628-2.618 3.482-2.6 1.801 1.794-3.523 3.508-.003.003-2.678 2.666a3.3 3.3 0 0 0-.98 2.356c0 .89.348 1.726.98 2.357.65.646 1.505.97 2.36.97a3.34 3.34 0 0 0 2.36-.97l2.679-2.667 4.285-4.266.002-.004 2.019-2-.008-.007c.013-.013.031-.017.044-.031l10.332-11.316 6.942.987a1.053 1.053 0 0 0 .525-.066c.035-.013.066-.03.099-.047.038-.019.079-.03.115-.054l6.427-4.267c.024-.016.036-.041.059-.059.025-.02.057-.028.081-.05l2.543-2.383a3.559 3.559 0 0 0 .424-4.723Zm-45.169 7.221c-.347.186-.74.223-1.117.104a1.43 1.43 0 0 1-.425-2.52l2.628-1.264.632 1.849.266.776-1.984 1.055Zm6.994-3.655-3.097 1.6-.51-1.493-.367-1.074 4.053-2-.079 2.967Zm30.199-13.241c0 1.837-.439 3.57-1.198 5.119l-8.363-3.798a3.72 3.72 0 0 0-1.576-2.776l2.928-9.72c4.755 1.512 8.209 5.948 8.209 11.175Zm-23.578 0c0-6.47 5.289-11.733 11.789-11.733.506 0 1 .042 1.49.104l-2.864 9.507c-.038 0-.075-.011-.114-.011a3.743 3.743 0 0 0-3.745 3.733 3.743 3.743 0 0 0 3.745 3.733c1.389 0 2.589-.766 3.236-1.889l7.725 3.51c-2.149 2.893-5.589 4.78-9.473 4.78-6.5 0-11.789-5.264-11.789-11.734Zm11.913 1.6c0 .882-.724 1.6-1.612 1.6a1.608 1.608 0 0 1-1.612-1.6c0-.882.723-1.6 1.612-1.6.888 0 1.612.718 1.612 1.6ZM104.93 74.293a1.217 1.217 0 0 1-1.709 0 1.188 1.188 0 0 1 0-1.688l1.924-1.917 1.702 1.695-1.917 1.91Zm6.427 7.466a1.215 1.215 0 0 1-1.709.001 1.186 1.186 0 0 1 0-1.688l1.925-1.918.805.801.898.894-1.919 1.91Zm6.964-6.937c-.001 0-.002 0-.003.002l-3.53 3.52-.806-.801-.898-.894 3.527-3.51v-.002c.001 0 .002 0 .003-.002.08-.08.13-.176.179-.27.014-.028.041-.052.052-.08.034-.083.039-.171.052-.258.006-.049.027-.095.027-.145 0-.071-.025-.14-.04-.211-.013-.064-.013-.13-.037-.191-.041-.1-.11-.189-.183-.275-.02-.024-.028-.054-.05-.076h-.001l-.002-.004-3.214-3.2c-.034-.034-.078-.048-.116-.077a1.047 1.047 0 0 0-.174-.115 1.002 1.002 0 0 0-.187-.065 1.014 1.014 0 0 0-.206-.04 1.037 1.037 0 0 0-.191.01 1.084 1.084 0 0 0-.208.04.992.992 0 0 0-.188.09c-.04.022-.085.03-.122.057l-3.547 2.648-1.801-1.794 4.798-4.773 8.721 8.578-1.855 1.838Zm13.637-14.034c-.031-.004-.059.008-.09.006a1.106 1.106 0 0 0-.407.056.988.988 0 0 0-.193.094 1 1 0 0 0-.166.123c-.026.022-.057.033-.08.058l-9.397 10.292-8.656-8.514 5.666-5.636a1.067 1.067 0 0 0-.759-1.822l-4.437.026.055-3.215 6.208.053a13.897 13.897 0 0 0 9.963 4.202c.875 0 1.728-.09 2.559-.245.08.064.159.129.259.17l4.819 1.92.305 1.516.357 1.77-6.006-.854Zm8.083.357-.627-3.116 2.893-2.16.758 1.005 1.136 1.508-4.16 2.763Zm7.507-5.662-1.676 1.57-1.862-2.473 1.663-1.274c.31-.24.701-.336 1.085-.286a1.435 1.435 0 0 1 .79 2.463Z"/><path fill="#2E2F42" d="m127.204 61.088-4.286-4.267a1.065 1.065 0 0 0-1.505 0l-4.285 4.267a1.073 1.073 0 0 0 0 1.513l4.285 4.266a1.065 1.065 0 0 0 1.505 0l4.286-4.266a1.07 1.07 0 0 0 0-1.513Zm-5.038 3.518-2.773-2.762 2.773-2.761 2.775 2.761-2.775 2.762ZM134.328 34.142l-.515 2.071c.142.035 3.476.904 3.476 4.298h2.133c0-4.035-3.331-5.931-5.094-6.37ZM139.422 42.644h-2.133v2.134h2.133v-2.134Z"/></svg>