<svg xmlns="http://www.w3.org/2000/svg" aria-hidden="true" style="position:absolute;width:0;height:0;overflow:hidden"><defs><symbol id="icon-email" viewBox="0 0 24 32"><path d="M20 8H4c-1.1 0-1.99.9-1.99 2L2 22c0 1.1.9 2 2 2h16c1.1 0 2-.9 2-2V10c0-1.1-.9-2-2-2zm-.4 4.25-7.07 4.42c-.32.2-.74.2-1.06 0L4.4 12.25a.85.85 0 1 1 .9-1.44L12 15l6.7-4.19a.85.85 0 1 1 .9 1.44z"/></symbol><symbol id="icon-name" viewBox="0 0 32 32"><path d="M16 16c2.947 0 5.333-2.387 5.333-5.333S18.946 5.334 16 5.334c-2.947 0-5.333 2.387-5.333 5.333S13.054 16 16 16zm0 2.667c-3.56 0-10.667 1.787-10.667 5.333v1.333c0 .733.6 1.333 1.333 1.333h18.667c.733 0 1.333-.6 1.333-1.333V24c0-3.547-7.107-5.333-10.667-5.333z"/></symbol><symbol id="icon-phone" viewBox="0 0 24 32"><path d="m19.635 18.487-2.451-.28a1.92 1.92 0 0 0-1.582.55l-1.775 1.775a14.514 14.514 0 0 1-6.359-6.359l1.785-1.785c.415-.415.618-.994.55-1.582l-.28-2.432a1.931 1.931 0 0 0-1.92-1.708H5.934c-1.09 0-1.997.907-1.93 1.997.511 8.24 7.102 14.821 15.332 15.332 1.09.068 1.997-.839 1.997-1.93v-1.669a1.913 1.913 0 0 0-1.698-1.911z"/></symbol></defs></svg>